<svg width="603" height="600" viewBox="0 0 603 600" fill="none" xmlns="http://www.w3.org/2000/svg">
<path d="M512.953 599.245C493.06 599.245 476.934 583.119 476.934 563.226V555.068V476.263V363.344V266.775L475.932 232.452L470.402 85.7162C470.138 78.7325 471.687 71.7995 474.897 65.5915C494.815 27.067 533.99 2.07086 577.311 0.0229092C586.882 -0.42957 595.524 5.85984 597.978 15.1224L598.22 16.0369C601.393 28.0149 603 40.3538 603 52.745V66.3534V154.978V463.883V509.198C603 558.929 562.685 599.245 512.953 599.245Z" fill="#FAFAFA"/>
<path d="M28.3395 599.386C12.688 599.386 0 586.698 0 571.047L0 521.423L0 296.845L0 276.255C0 260.249 6.39537 244.906 17.7639 233.639L26.1623 225.316C42.9218 208.705 65.5631 199.386 89.1592 199.386H103.099C113.361 199.386 122.051 206.953 123.463 217.117L126 235.379L126 512.55C126 560.509 87.1221 599.386 39.1638 599.386H28.3395Z" fill="#FAFAFA"/>
<path d="M270.587 599.245C251.023 599.245 235 583.385 235 563.82V501.791L235 221.068V178.576C235 167.737 238.811 157.242 245.765 148.928L253.925 139.173C275.093 113.867 306.389 99.2448 339.381 99.2448C348.842 99.2448 356.791 106.359 357.836 115.762L361 144.235V490.699V509.245C361 558.95 320.293 599.245 270.587 599.245Z" fill="#FAFAFA"/>
</svg>
